<?xml version="1.0" encoding="utf-8"?>
<!-- Generator: Adobe Illustrator 25.4.1, SVG Export Plug-In . SVG Version: 6.00 Build 0)  -->
<svg version="1.0" id="Layer_1" xmlns="http://www.w3.org/2000/svg" xmlns:xlink="http://www.w3.org/1999/xlink" x="0px" y="0px"
	 viewBox="0 0 1174 919.8" style="enable-background:new 0 0 1174 919.8;" xml:space="preserve">
<style type="text/css">
	.st0{fill:#3067EF;}
	.st1{fill:#3268EF;}
	.st2{fill:#3168EF;}
	.st3{fill:#3167EF;}
	.st4{fill:#3369EF;}
	.st5{fill:none;}
</style>
<path class="st0" d="M583.8,116.1c0,2.3,1.8,3.7,3,5.4c38.6,57.7,77.3,115.3,116,172.9c2.6,3.9,2.4,5.8-1.3,8.7
	c-89.7,68.8-179.4,137.6-269,206.6c-2.6,2.1-5.8,3.2-9.2,3.1c-23.3-0.1-46.7-0.1-70.2-0.1c-0.4-2.5,1.3-4,2.3-5.7
	c74.8-128.6,149.7-257.2,224.7-385.8c1-1.7,1.8-3.4,2.7-5.1H583.8z"/>
<path class="st1" d="M237,678.2c10.8,0,21.6,0.3,32.3-0.1c4.3-0.1,5.7,1.5,6.6,5.3c5.3,22.5,10.8,44.9,16.5,68.6
	c0.9-2.5,1.4-3.8,1.8-5.1c5.7-21.3,11.5-42.6,17.1-63.9c1-3.7,2.5-5.1,6.4-4.9c7.1,0.4,14.1,0.3,21.2,0c3.2-0.1,4.5,0.9,5.4,4.1
	c5.8,22,11.8,44,17.8,65.9c0.2,0.6,0.4,1.2,0.9,2.7c2.5-5.1,3.1-9.9,4.2-14.5c4.4-17.8,8.8-35.6,12.9-53.5c0.8-3.4,1.9-5,5.9-4.8
	c9.5,0.4,19.1,0.2,28.6,0.1c3.6-0.1,4.1,0.9,3,4.2c-11.8,37.5-23.5,75.1-35.1,112.7c-0.9,2.9-2.2,3.9-5.1,3.8
	c-8.3-0.2-16.6-0.2-24.9,0c-3.4,0.1-4.5-1.3-5.3-4.3c-6.4-24.2-12.9-48.3-19.4-72.5c-1.9,0.8-1.6,2.4-2,3.7
	c-5.8,22.5-11.7,45.1-17.3,67.7c-1,3.9-2.6,5-6.5,4.9c-7.8-0.3-15.6-0.3-23.3,0c-4.1,0.2-5.8-1.1-6.9-5.1
	c-10.8-36-21.8-71.9-32.8-107.8c-0.5-1.8-0.5-3.8-2.2-5.2L237,678.2z"/>
<path class="st2" d="M937,798c-13.8,0.1-27.6,0.1-41.3,0.3c-2.7,0-3.6-1.8-4.7-3.5l-21-32.4c-1.9,0-2.2,1.7-2.9,2.7
	c-6.5,9.9-13,19.8-19.3,29.8c-1.5,2.3-3,3.5-5.9,3.4c-11.8-0.2-23.7,0-35.5-0.1c-1.3,0-3,0.8-3.8-0.9s0.8-2.6,1.5-3.7
	c13.3-18.3,26.5-36.6,40-54.7c2.8-3.7,2.5-6-0.1-9.5c-11.4-15.3-22.5-30.8-33.6-46.3c-1-1.4-2.5-2.5-2.6-5.1c13.6,0,27.1,0,40.6,0
	c2.5,0,3,2.2,3.9,3.8c5.6,9,11,18,17,27.7c5.8-9.4,11.5-18.1,16.5-27.1c2.1-3.7,4.4-4.7,8.4-4.6c12.2,0.2,24.4,0.1,36.8,0.1
	c0.1,2.4-1.6,3.6-2.7,5c-11.7,16-23.4,31.9-35.2,47.8c-1.4,2-2.6,3.5-0.7,6c14.5,19.4,28.8,38.8,43.3,58.3c0.3,0.4,0.8,0.5,1.3,0.8
	L937,798z"/>
<path class="st0" d="M487,514.8l379.9-292.1c-0.8,10.4-1.6,19.8-2.4,29.1c-2.4,27.1-4.7,54.2-7.1,81.3c-2.7,30.6-5.4,61.2-8.1,91.8
	c-2.3,26.4-4.6,52.8-6.7,79.2c-0.9,10.7-0.7,10.7-11.1,10.7H487z"/>
<path class="st0" d="M585.9,547.6c83.1,0,166.1,0,249.2-0.1c4.7,0,6.3,1,6.2,6c-0.3,16.4-0.3,32.9,0,49.3c0.1,4.7-1.3,5.8-5.9,5.8
	c-87.6-0.1-175.3-0.2-263-0.1c-79,0-158,0-237,0.1c-4.8,0-6.3-1.1-6.2-6.1c0.3-16.4,0.3-32.9,0-49.3c-0.1-4.8,1.3-5.8,5.9-5.8
	C418.8,547.6,502.4,547.7,585.9,547.6z"/>
<path class="st3" d="M307.1,216.1c2.1,1.3,3.3,2,4.4,2.8c39.2,27.7,78.4,55.4,117.7,83.1c2.6,1.8,4.1,3,2,6.6
	c-33,56.4-65.8,112.8-98.6,169.3c-0.5,0.9-1.1,1.7-2.4,3.6C322.4,392.5,314.8,304.9,307.1,216.1z"/>
<path class="st3" d="M517.7,690.5c0.4-12.5,0.4-12.5,11.4-12.5c6.7,0,13.4,0.1,20.1,0c2.8-0.1,4.1,0.4,4.1,3.7
	c-0.1,37.6-0.1,75.2,0,112.9c0,3.2-1.2,3.8-4,3.8c-8.5-0.1-17-0.3-25.4,0.1c-4.9,0.2-6.8-1.3-6-6.1c0.1-1.7,0.1-3.4,0-5.1
	c-2.8,3-4.7,5.5-7,7.5c-10.5,9.2-23.2,10.1-36,8.2c-31.3-4.6-53.3-30.2-54.2-62.3s19.6-58.5,50.8-65.2c8-1.8,16.2-1.9,24.2-0.3
	C504.6,677,511.7,681.8,517.7,690.5z M487,768.5c16.9,0.1,30.9-13.7,30.8-30.4c-0.1-16.3-13.7-30.1-30-30.2
	c-16.7-0.4-30.7,12.8-31.1,29.5s12.8,30.7,29.5,31.1C486.5,768.5,486.7,768.5,487,768.5L487,768.5z"/>
<path class="st3" d="M621.2,705.1c-16.1,0-31.1-0.1-46.1,0.1c-3.8,0-5.4-0.7-5.1-4.9c0.4-6.2,0.2-12.4,0-18.5
	c-0.1-2.7,0.8-3.7,3.6-3.7c27.4,0.1,54.8,0.1,82.2,0c2.8,0,3.7,0.8,3.6,3.6c-0.2,7.4-0.2,14.8,0,22.3c0.1,2.6-1.2,4.3-2.5,6.2
	l-39.6,55c-1.2,1.7-2.4,3.4-3.6,5.1c1.1,1.8,2.7,1.1,4,1.1c12.6,0.1,25.1,0.2,37.6,0c3.3,0,4.3,0.9,4.2,4.2
	c-0.2,6.2-0.3,12.4,0,18.5c0.2,3.7-1.3,4.4-4.6,4.3c-26.9-0.1-53.7-0.1-80.6,0c-3.1,0-4.7-0.8-4.2-4.1c0.1-0.4,0.1-0.7,0-1.1
	c-2-13.4,2.4-24.2,11.1-34.7c12.8-15.3,24.1-31.8,36-47.8C618.3,709.1,619.5,707.5,621.2,705.1z"/>
<path class="st1" d="M771.5,689.9c6.8-9.3,15-14.2,25.3-15.6c3.6-0.5,5.5-0.2,5.3,4.3c-0.3,9.2-0.2,18.4,0,27.5
	c0,2.9-0.7,4.3-3.8,4.1c-1.4,0-2.8,0.2-4.2,0.6c-14,2-20.1,8.8-20.1,23c-0.1,19.4-0.2,38.8,0.1,58.3c0.1,4.6-0.8,6.5-6,6.3
	c-8.8-0.5-17.7-0.2-26.5-0.1c-3,0-4-0.9-4-3.9c0.1-37.6,0.1-75.2,0-112.8c0-2.8,1-3.6,3.7-3.6c8.5,0.1,17,0.3,25.4-0.1
	c4.2-0.2,5.3,1.3,4.8,5.1C771.4,685.3,771.4,687.6,771.5,689.9z"/>
<path class="st3" d="M712,738.6c0,18.2-0.1,36.4,0.1,54.6c0,3.8-0.7,5.3-4.9,5.2c-9.2-0.3-18.4-0.2-27.6,0c-3,0-3.9-1-3.9-4
	c0.1-37.5,0.1-74.9,0-112.4c0-3.5,1.3-4,4.4-4c9.2,0.2,18.4,0.2,27.6,0c3.5-0.1,4.5,1,4.5,4.5C712,701.2,712,719.9,712,738.6z"/>
<path class="st4" d="M709.2,651.6c0.1,8.3-6.5,15.1-14.7,15.2c-0.3,0-0.5,0-0.8,0c-8.5,0-15.4-6.9-15.4-15.5c0,0,0,0,0-0.1
	c0.2-8.5,7.1-15.3,15.7-15.4C702.5,636,709.3,643,709.2,651.6C709.2,651.5,709.2,651.5,709.2,651.6z"/>
<rect x="212" y="84.9" class="st5" width="750" height="750"/>
</svg>
